<?xml version="1.0" encoding="UTF-8"?>
<svg version="1.1" xmlns="http://www.w3.org/2000/svg" width="998" height="290">
<path d="M0 0 C4.79067454 1.71494964 8.42955789 4.62072826 11 9 C13.04547008 15.04102562 13.20793175 19.8972852 11.515625 26.015625 C10.90018475 28.38413749 10.84284397 30.56408147 11 33 C13.53627177 34.26813588 15.21763412 34.06701132 18.05078125 33.9921875 C19.05947266 33.97542969 20.06816406 33.95867187 21.10742188 33.94140625 C23.23260396 33.89737445 25.35763694 33.84537813 27.48242188 33.78515625 C29.00125977 33.76388672 29.00125977 33.76388672 30.55078125 33.7421875 C31.47544189 33.7201123 32.40010254 33.69803711 33.3527832 33.67529297 C36.5525389 34.0677743 38.42873363 35.08426847 41 37 C41 37.66 41 38.32 41 39 C43.475 38.505 43.475 38.505 46 38 C46 37.34 46 36.68 46 36 C55.77228864 32.33539176 67.76050257 31.70531347 78 34 C78.66 34.66 79.32 35.32 80 36 C84.30772561 36.75574134 88.4086037 37.04768583 92.77734375 37.0234375 C93.97025024 37.01836182 93.97025024 37.01836182 95.18725586 37.01318359 C95.78546143 37.00883301 96.38366699 37.00448242 97 37 C96.94875977 36.36497559 96.89751953 35.72995117 96.84472656 35.07568359 C96.62371889 32.17667621 96.43659807 29.27641707 96.25 26.375 C96.16878906 25.37597656 96.08757812 24.37695312 96.00390625 23.34765625 C95.63335963 17.1307074 95.81744823 13.73288753 100 9 C102.03294758 6.96705242 106.25994791 7.84274371 109.05224609 7.83886719 C109.89613388 7.83390228 110.74002167 7.82893738 111.60948181 7.82382202 C114.41414186 7.80916133 117.21874535 7.80239188 120.0234375 7.796875 C121.96538292 7.7911267 123.90732832 7.78536893 125.84927368 7.77960205 C129.92653672 7.76908089 134.00377997 7.76324555 138.08105469 7.75976562 C143.31256493 7.75427899 148.54381513 7.73025202 153.77524376 7.70179367 C157.78832774 7.68319469 161.80134875 7.67796315 165.8144722 7.67642975 C167.74343919 7.67339641 169.67240491 7.66534508 171.6013298 7.65224457 C174.29741083 7.63524136 176.99285236 7.63705019 179.68896484 7.64355469 C180.49012222 7.6343399 181.2912796 7.62512512 182.11671448 7.6156311 C187.49625468 7.65640838 187.49625468 7.65640838 189.9569397 9.33477783 C191.86680991 12.3838424 192.16017223 15.16386287 192.31640625 18.66796875 C192.35830078 19.56064453 192.40019531 20.45332031 192.44335938 21.37304688 C192.48267578 22.30181641 192.52199219 23.23058594 192.5625 24.1875 C192.60568359 25.12787109 192.64886719 26.06824219 192.69335938 27.03710938 C192.79938665 29.35792854 192.90145029 31.67885325 193 34 C193.62044189 34.01981934 194.24088379 34.03963867 194.88012695 34.06005859 C197.69134537 34.15531845 200.50182166 34.26499302 203.3125 34.375 C204.28896484 34.4059375 205.26542969 34.436875 206.27148438 34.46875 C207.20927734 34.50742188 208.14707031 34.54609375 209.11328125 34.5859375 C209.97735596 34.6173584 210.84143066 34.6487793 211.73168945 34.68115234 C214 35 214 35 217 37 C217 37.66 217 38.32 217 39 C219.3431213 38.74438677 221.67843403 38.40729228 224 38 C224.33 37.34 224.66 36.68 225 36 C230.91001367 33.81908379 237.77677171 33.14349297 244 34 C247.125 35.5625 247.125 35.5625 249 38 C249.3125 41.75 249.3125 41.75 249 45 C252.48430308 44.37155264 254.75116734 42.97032812 257.625 40.9375 C261.78588235 38 261.78588235 38 264 38 C264.33 37.34 264.66 36.68 265 36 C266.65 36 268.3 36 270 36 C270 35.34 270 34.68 270 34 C276.0523176 33.23145173 281.90196266 32.78150355 288 33 C288.93585938 33.02835938 289.87171875 33.05671875 290.8359375 33.0859375 C296.68340109 33.41515127 299.51469912 34.04238158 304 38 C306.7365437 37.86651006 308.47140718 37.28191617 310.875 36 C317.39833109 32.93019713 325.08317327 33.91630099 332 35 C333.68691371 35.6136321 335.362266 36.26511936 337 37 C337.02578125 37.91523438 337.0515625 38.83046875 337.078125 39.7734375 C337.13484375 40.96195313 337.1915625 42.15046875 337.25 43.375 C337.29640625 44.55835938 337.3428125 45.74171875 337.390625 46.9609375 C337.65648799 50.11291753 337.65648799 50.11291753 340.046875 51.4140625 C340.69140625 51.60742188 341.3359375 51.80078125 342 52 C342.40089844 51.48050781 342.80179688 50.96101563 343.21484375 50.42578125 C347.08291059 45.68060175 350.66457521 42.68123982 356.1796875 40.0078125 C358.17095823 39.12965626 358.17095823 39.12965626 359 37 C358.34 36.67 357.68 36.34 357 36 C357.721875 36.20625 358.44375 36.4125 359.1875 36.625 C362.53980225 37.07197363 363.90093176 36.2612487 367 35 C378.23846157 32.48878514 390.80141548 31.70629867 402 35 C403.34302714 35.9869427 404.67517382 36.98875653 406 38 C407.39325066 38.87910653 408.78920872 39.7539333 410.1875 40.625 C413.79901182 43.00538617 416.77631522 45.62176196 419.80078125 48.7109375 C420.59266846 49.5157959 421.38455566 50.3206543 422.20043945 51.14990234 C422.79429443 51.76043457 423.38814941 52.3709668 424 53 C424.00213753 52.16434761 424.00213753 52.16434761 424.00431824 51.31181335 C424.02398458 45.52027977 424.07819084 39.72980454 424.15258789 33.9387207 C424.17580413 31.77668853 424.19017207 29.61454269 424.19555664 27.45239258 C424.20481962 24.34644428 424.24575236 21.24229297 424.29296875 18.13671875 C424.2890361 17.16788254 424.28510345 16.19904633 424.28105164 15.20085144 C424.33554103 12.70231497 424.43347423 10.43387028 425 8 C429.15806981 4.16164393 434.03591489 4.32447064 439.4375 4.0625 C440.68756836 3.96098633 440.68756836 3.96098633 441.96289062 3.85742188 C445.94923219 3.63998506 448.70908299 3.89556825 452.50390625 5.2578125 C456.43865422 9.58049337 456.21565618 14.1425488 456.5 19.8125 C456.62761719 21.41448242 456.62761719 21.41448242 456.7578125 23.04882812 C457.14585869 28.85874193 457.05873329 33.53343925 455 39 C455.66 39.33 456.32 39.66 457 40 C456.67 40.33 456.34 40.66 456 41 C455.92755947 43.01964199 455.91622812 45.04167124 455.9375 47.0625 C455.95103516 48.71958984 455.95103516 48.71958984 455.96484375 50.41015625 C455.97644531 51.26480469 455.98804688 52.11945313 456 53 C459.57522104 53.83030773 459.57522104 53.83030773 463 53 C465.38265178 50.39125718 467.27133208 47.65486192 469.203125 44.69921875 C470.68598852 42.47169985 472.0455796 40.79108268 474 39 C474.7115625 38.2265625 474.7115625 38.2265625 475.4375 37.4375 C478.64966558 34.48230766 481.53911674 33.74602714 485.84375 33.734375 C486.76027344 33.73179687 487.67679688 33.72921875 488.62109375 33.7265625 C489.57113281 33.73429687 490.52117188 33.74203125 491.5 33.75 C492.45003906 33.74226563 493.40007813 33.73453125 494.37890625 33.7265625 C495.75369141 33.73042969 495.75369141 33.73042969 497.15625 33.734375 C497.98962891 33.73663086 498.82300781 33.73888672 499.68164062 33.74121094 C502.25710295 34.02869936 503.8243888 34.60205904 506 36 C508.13586678 39.20380017 508.23132175 40.01939967 508.125 43.6875 C508.10695313 44.49574219 508.08890625 45.30398437 508.0703125 46.13671875 C508.03550781 47.05904297 508.03550781 47.05904297 508 48 C510.86724686 47.42655063 511.8614515 47.1385485 514 45 C513.67 44.34 513.34 43.68 513 43 C514.27057182 42.52014033 515.54146848 42.0411407 516.8125 41.5625 C517.52019531 41.29566406 518.22789062 41.02882812 518.95703125 40.75390625 C520.62672396 40.13774814 522.31157704 39.56280765 524 39 C524 38.34 524 37.68 524 37 C527.07617188 36.70703125 527.07617188 36.70703125 530.15234375 36.4140625 C530.76207031 36.27742188 531.37179687 36.14078125 532 36 C532.33 35.34 532.66 34.68 533 34 C546.00367494 31.93592461 559.93098491 32.28309811 572 38 C574.6875 40.375 574.6875 40.375 577 43 C577.804375 43.78375 578.60875 44.5675 579.4375 45.375 C582.01674597 48.01715441 584.34899771 50.77488107 586.66796875 53.64453125 C587.32732422 54.31548828 587.32732422 54.31548828 588 55 C588.66 55 589.32 55 590 55 C589.95359375 53.80761719 589.9071875 52.61523438 589.859375 51.38671875 C589.82185689 49.82033753 589.78545677 48.25392924 589.75 46.6875 C589.71648438 45.90181641 589.68296875 45.11613281 589.6484375 44.30664062 C589.55191448 38.63591315 589.55191448 38.63591315 591.42578125 35.9765625 C595.41044568 34.46492956 599.21421622 34.60745292 603.4375 34.6875 C604.28376953 34.68427734 605.13003906 34.68105469 606.00195312 34.67773438 C610.37672809 34.71541842 614.08952336 34.80613023 618 37 C619.3125 39.125 619.3125 39.125 620 41 C620.825 40.38125 621.65 39.7625 622.5 39.125 C629.33552115 34.64216985 638.02040996 33.90058982 646 35 C648.13287729 36.61094515 648.90290915 37.55721436 649.47998047 40.18896484 C649.62843612 42.91769589 649.77166915 45.64411312 649.875 48.375 C649.96394531 49.79425781 649.96394531 49.79425781 650.0546875 51.2421875 C650.23471149 55.24772126 650.25716928 58.29854863 648.8671875 62.08984375 C646.39517324 64.61874536 644.73815079 64.81124008 641.25 65.1875 C639.64705078 65.40212891 639.64705078 65.40212891 638.01171875 65.62109375 C637.01785156 65.74613281 636.02398438 65.87117188 635 66 C630.74856189 66.68176215 628.36404098 67.64404882 625.1875 70.75 C621.01946769 76.94250515 620.68012922 82.53463549 620.5859375 89.7734375 C620.56657135 90.6971817 620.5472052 91.6209259 620.5272522 92.57266235 C620.46774295 95.50668264 620.42118605 98.44074276 620.375 101.375 C620.33679383 103.37111032 620.29774058 105.36720463 620.2578125 107.36328125 C620.16206504 112.24205651 620.07792861 117.12090891 620 122 C620.66 122.33 621.32 122.66 622 123 C621.34 123 620.68 123 620 123 C619.814375 123.78375 619.62875 124.5675 619.4375 125.375 C618 128 618 128 614.953125 129.14453125 C610.740252 130.20951957 606.63961173 130.33149522 602.3125 130.3125 C601.19391602 130.33666992 601.19391602 130.33666992 600.05273438 130.36132812 C596.80501135 130.36422529 594.42464182 130.23021123 591.54296875 128.66796875 C588.75878784 125.65823394 588.88688901 122.70954635 588.9375 118.8125 C588.94652344 117.91144531 588.95554687 117.01039063 588.96484375 116.08203125 C588.98224609 115.05142578 588.98224609 115.05142578 589 114 C585.85239692 115.77052673 582.98265997 117.74143835 580.125 119.9375 C577.52117935 121.92865697 574.93656958 123.67427807 572.0625 125.25 C568.93932967 126.6590905 568.93932967 126.6590905 568 129 C566.35 128.67 564.7 128.34 563 128 C562.67 128.66 562.34 129.32 562 130 C553.90006425 131.55824535 545.07547425 131.52158504 536.90847778 130.49780273 C532.18304738 129.96674935 527.53565062 129.87181664 522.78466797 129.90234375 C521.90965637 129.90380402 521.03464478 129.90526428 520.13311768 129.9067688 C518.24262802 129.91055412 516.35214183 129.91664857 514.46166611 129.92483521 C511.42578171 129.93778322 508.38994202 129.94416472 505.35403442 129.94897461 C497.78775758 129.96224654 490.22152144 129.98599278 482.65527344 130.01037598 C475.26758393 130.03382627 467.87990774 130.05222933 460.4921875 130.0625 C459.45962578 130.06402069 458.42706406 130.06554138 457.36321259 130.06710815 C437.23034633 130.08624216 417.1211719 129.66236017 397 129 C396.67 129.66 396.34 130.32 396 131 C393.37492678 131.02740796 390.75015009 131.04703194 388.125 131.0625 C387.39796875 131.07087891 386.6709375 131.07925781 385.921875 131.08789062 C382.14560923 131.10445319 378.48103828 130.9696739 374.73266602 130.50219727 C367.36589961 129.74249049 359.9785272 129.85598646 352.58203125 129.8671875 C350.99557989 129.86651194 349.40912863 129.86553982 347.82267761 129.86428833 C344.50864673 129.86282108 341.19464295 129.86493303 337.88061523 129.86962891 C333.67635573 129.87530212 329.47216044 129.87205626 325.26790333 129.86605644 C321.99295081 129.86240435 318.71801294 129.8636109 315.44305992 129.86618423 C313.89524007 129.86684195 312.34741879 129.86606654 310.7996006 129.86370468 C302.06277512 129.85330196 293.4611752 130.07432187 284.75492859 130.88357544 C281.76534518 130.97626986 279.17476495 130.84205801 276.22590637 130.51479244 C269.02944452 129.83525281 261.85265931 129.86435781 254.63056946 129.87974548 C253.09489953 129.8793087 251.55922968 129.87843182 250.02356023 129.87715632 C245.82982111 129.87493241 241.6361078 129.87890367 237.44237196 129.88393438 C232.91014398 129.88826906 228.37791734 129.88679032 223.84568787 129.8860321 C216.00194774 129.88550878 208.15821595 129.88863558 200.31447792 129.89426994 C188.97387017 129.90241089 177.63326644 129.90500282 166.29265609 129.90625793 C147.89147222 129.90844438 129.49029279 129.91509341 111.08911133 129.92456055 C93.21834332 129.93374521 75.34757653 129.94082089 57.47680664 129.94506836 C55.82335903 129.94546244 55.82335903 129.94546244 54.13650844 129.94586449 C48.60637906 129.94716957 43.07624968 129.94843327 37.54612029 129.94967639 C-8.30258955 129.96003631 -54.15129455 129.97764354 -100 130 C-100 129.34 -100 128.68 -100 128 C-100.99 128 -101.98 128 -103 128 C-104.81800088 123.33287477 -105.2483237 119.44678027 -105.24291992 114.45117188 C-105.24481827 113.71819885 -105.24671661 112.98522583 -105.24867249 112.2300415 C-105.25236975 109.80950131 -105.24166621 107.38926361 -105.23046875 104.96875 C-105.22927313 103.2555749 -105.22882459 101.54239913 -105.2290802 99.82922363 C-105.22751557 96.22464931 -105.21924581 92.62017428 -105.20581055 89.015625 C-105.18912479 84.49108641 -105.18511349 79.96665837 -105.18557549 75.4420929 C-105.18546425 65.09657378 -105.13468541 54.75223866 -105.02532196 44.4072876 C-105.00859828 42.81741398 -104.99291744 41.22752902 -104.97834015 39.63763428 C-104.93141965 34.64275002 -104.84601788 29.65020028 -104.73828125 24.65625 C-104.72492233 23.41870972 -104.71156342 22.18116943 -104.69779968 20.90612793 C-104.66644424 19.78017212 -104.63508881 18.65421631 -104.6027832 17.49414062 C-104.58302933 16.52238892 -104.56327545 15.55063721 -104.54292297 14.54943848 C-103.8142258 11.12764808 -102.87947695 9.9876128 -100 8 C-97.30867959 7.62745888 -95.03058309 7.49535833 -92.3449707 7.54931641 C-91.57855759 7.54861649 -90.81214447 7.54791656 -90.02250671 7.54719543 C-88.36047604 7.54791198 -86.69843034 7.55761856 -85.0364933 7.57527542 C-82.39955152 7.60182661 -79.76380699 7.60185029 -77.12675476 7.59457397 C-69.63061673 7.57892925 -62.13489534 7.61312557 -54.63891602 7.66015625 C-50.04994801 7.68711229 -45.46169647 7.68480373 -40.87270164 7.66569138 C-39.13009731 7.66461391 -37.38744472 7.6749724 -35.64498329 7.69731522 C-25.99649677 7.8205766 -18.51063325 7.83958812 -11 1 C-7.51742278 -0.74128861 -3.80773247 -0.44943728 0 0 Z " fill="#050606" transform="translate(322,125)"/>
<path d="M0 0 C5.57290491 5.418102 7.15187538 11.89275294 7.38768005 19.41296387 C7.40846847 21.97249627 7.41281819 24.53219506 7.40405273 27.09179688 C7.40976314 28.50855546 7.41672998 29.92530945 7.42485046 31.34205627 C7.44272133 35.17057692 7.44162525 38.99886762 7.43590808 42.82741737 C7.43280798 46.03066947 7.43891765 49.23387791 7.44494683 52.43712378 C7.45896994 59.99636848 7.45744872 67.55550012 7.44604492 75.11474609 C7.43456042 82.89926598 7.44864983 90.68344148 7.4754414 98.46791601 C7.4976271 105.16626067 7.50422949 111.86449745 7.49836498 118.56287622 C7.4950017 122.5570924 7.49736864 126.55108774 7.51461601 130.54527283 C7.53012954 134.30145022 7.52608143 138.05711869 7.50731087 141.81327629 C7.50189297 143.83939795 7.51610466 145.86554271 7.53100586 147.89161682 C7.45938748 156.77269903 6.32865515 162.73688176 0 169.3125 C-4.71341895 172.97624963 -10.07797965 174.62423729 -16 175 C-19.63576703 174.14510343 -22.70549763 172.72539403 -26 171 C-26.99 170.67 -27.98 170.34 -29 170 C-29 169.34 -29 168.68 -29 168 C-29.99 167.67 -30.98 167.34 -32 167 C-32 166.34 -32 165.68 -32 165 C-32.99 164.67 -33.98 164.34 -35 164 C-37.48619672 157.11000974 -37.27673109 150.23394143 -37.24291992 142.98144531 C-37.24481827 141.69257416 -37.24671661 140.403703 -37.24867249 139.07577515 C-37.25349489 135.55897854 -37.24589611 132.04231004 -37.23571944 128.52552891 C-37.22688643 124.82893093 -37.22869746 121.13233636 -37.2290802 117.43572998 C-37.2281453 111.22536092 -37.21948803 105.01504089 -37.20581055 98.8046875 C-37.19011467 91.65202194 -37.18481164 84.49941011 -37.1855461 77.34672856 C-37.18622503 69.69895987 -37.17926177 62.05121155 -37.1700995 54.40344906 C-37.16798102 52.21579598 -37.16726006 50.02814625 -37.16686058 47.84049225 C-37.16565656 43.73901405 -37.15589369 39.63759741 -37.14526367 35.53613281 C-37.14571686 34.33884552 -37.14617004 33.14155823 -37.14663696 31.9079895 C-37.06445716 10.08774673 -37.06445716 10.08774673 -31.47265625 3.328125 C-30 2 -30 2 -28 2 C-28 1.34 -28 0.68 -28 0 C-18.07865372 -4.39481689 -9.70384143 -5.4341512 0 0 Z " fill="#1B35DB" transform="translate(189,95)"/>
<path d="M0 0 C4.50079277 2.90944104 9.74518401 6.52943053 12.1875 11.4140625 C12.6825 4.9790625 12.6825 4.9790625 13.1875 -1.5859375 C19.4575 -1.5859375 25.7275 -1.5859375 32.1875 -1.5859375 C32.1875 26.1340625 32.1875 53.8540625 32.1875 82.4140625 C25.9175 82.4140625 19.6475 82.4140625 13.1875 82.4140625 C12.8575 78.4540625 12.5275 74.4940625 12.1875 70.4140625 C11.56875 71.2803125 10.95 72.1465625 10.3125 73.0390625 C5.5060399 78.81776952 -1.63804083 82.48315867 -8.8125 84.4140625 C-21.14475073 85.53399234 -32.04902557 84.26004764 -41.90625 76.16015625 C-51.33816624 67.52067559 -57.07347747 57.86299344 -58.0859375 44.91796875 C-58.39388926 32.96707147 -56.50659298 21.6771118 -48.5234375 12.21484375 C-47.95882812 11.62058594 -47.39421875 11.02632812 -46.8125 10.4140625 C-46.16539062 9.72699219 -45.51828125 9.03992188 -44.8515625 8.33203125 C-33.32091563 -2.88641399 -14.98146468 -7.23063747 0 0 Z " fill="#F9F9F9" transform="translate(621.8125,166.5859375)"/>
<path d="M0 0 C1.07765625 0.00902344 2.1553125 0.01804687 3.265625 0.02734375 C4.08546875 0.03894531 4.9053125 0.05054687 5.75 0.0625 C5.75 0.7225 5.75 1.3825 5.75 2.0625 C6.471875 2.10375 7.19375 2.145 7.9375 2.1875 C12.59995224 3.6380407 14.78928372 7.23713907 17 11.4375 C18.98672826 18.3910489 18.90282826 25.55408202 18.91113281 32.72607422 C18.91858017 34.28381058 18.91858017 34.28381058 18.92617798 35.87301636 C18.94071076 39.28774695 18.94758576 42.70243114 18.953125 46.1171875 C18.95888255 48.503184 18.9646402 50.8891805 18.97039795 53.275177 C18.98088181 58.26987929 18.98674197 63.26456561 18.99023438 68.25927734 C18.99572197 74.6433879 19.01976702 81.02728551 19.04820633 87.41132927 C19.06687201 92.33741872 19.07204035 97.26345719 19.07357025 102.18957901 C19.07658701 104.54258517 19.08458233 106.89559064 19.09775543 109.24856186 C19.11490247 112.54591667 19.1129147 115.84275482 19.10644531 119.14013672 C19.12026749 120.58217468 19.12026749 120.58217468 19.1343689 122.05334473 C19.09031366 129.25920408 18.35636987 136.74905553 13.77734375 142.5703125 C13.08769531 143.10398437 12.39804688 143.63765625 11.6875 144.1875 C10.99527344 144.74695313 10.30304688 145.30640625 9.58984375 145.8828125 C7.75 147.0625 7.75 147.0625 5.75 147.0625 C5.42 148.0525 5.09 149.0425 4.75 150.0625 C4.42 149.7325 4.09 149.4025 3.75 149.0625 C2.08050645 149.10017954 0.41240712 149.21678796 -1.25 149.375 C-2.1575 149.45363281 -3.065 149.53226563 -4 149.61328125 C-4.7425 149.76152344 -5.485 149.90976562 -6.25 150.0625 C-6.58 150.7225 -6.91 151.3825 -7.25 152.0625 C-8.735 151.0725 -8.735 151.0725 -10.25 150.0625 C-10.25 149.4025 -10.25 148.7425 -10.25 148.0625 C-11.549375 147.7221875 -11.549375 147.7221875 -12.875 147.375 C-17.66689095 145.51148685 -21.2912458 143.12382154 -23.5 138.375 C-23.87125 137.2303125 -23.87125 137.2303125 -24.25 136.0625 C-24.91 135.4025 -25.57 134.7425 -26.25 134.0625 C-25.95041941 132.05716647 -25.61055587 130.05777205 -25.25 128.0625 C-25.33398843 125.73928872 -25.48545064 123.41816275 -25.6796875 121.1015625 C-26.55070274 108.92778906 -26.40118863 96.72760081 -26.38037109 84.52978516 C-26.3746171 81.09506296 -26.37800379 77.66041798 -26.38394356 74.22569847 C-26.38843471 70.90827202 -26.38528911 67.59086614 -26.3828125 64.2734375 C-26.38483673 63.05046967 -26.38686096 61.82750183 -26.38894653 60.56747437 C-26.37348785 54.94806944 -26.14275841 49.62177096 -25.25 44.0625 C-25.17346801 41.79402593 -25.14188412 39.52364684 -25.15234375 37.25390625 C-25.15556641 36.01318359 -25.15878906 34.77246094 -25.16210938 33.49414062 C-25.17048828 32.21732422 -25.17886719 30.94050781 -25.1875 29.625 C-25.19201172 28.32111328 -25.19652344 27.01722656 -25.20117188 25.67382812 C-25.21290749 22.47000448 -25.22932637 19.26627637 -25.25 16.0625 C-24.59 16.0625 -23.93 16.0625 -23.25 16.0625 C-23.1571875 15.010625 -23.1571875 15.010625 -23.0625 13.9375 C-21.58288425 8.70193659 -18.24543887 5.45535726 -13.6875 2.75 C-8.84833331 0.37440908 -5.39142189 -0.05860241 0 0 Z " fill="#F4414F" transform="translate(124.25,118.9375)"/>
<path d="M0 0 C9.46893128 6.57870516 14.66272456 14.77742731 18.4375 25.5625 C19.40962952 31.57202794 19.125 37.7248517 19.125 43.8125 C-2.325 44.1425 -23.775 44.4725 -45.875 44.8125 C-41.6858294 54.68719509 -41.6858294 54.68719509 -34.1875 61.625 C-26.07230082 64.53422235 -18.76808589 64.37799742 -10.875 60.8125 C-7.46783713 58.63022626 -5.13326665 56.19989997 -2.875 52.8125 C-0.81201172 52.47192383 -0.81201172 52.47192383 1.6953125 52.51953125 C2.59121094 52.52919922 3.48710938 52.53886719 4.41015625 52.54882812 C5.81587891 52.5865332 5.81587891 52.5865332 7.25 52.625 C8.66732422 52.64530273 8.66732422 52.64530273 10.11328125 52.66601562 C12.45108779 52.70143694 14.78776237 52.75082729 17.125 52.8125 C13.52142439 64.75813491 7.31360608 71.92262149 -3.34765625 78.2890625 C-13.41759415 83.35943911 -25.38370961 83.34675741 -36.2890625 81.11328125 C-48.14151654 77.1568987 -56.33284965 69.90040825 -62.125 59 C-68.11083782 46.41720479 -68.30580698 33.9625657 -63.875 20.8125 C-59.6442595 10.97176661 -52.51886818 2.62021009 -42.875 -2.1875 C-28.3402737 -7.66780664 -13.70198742 -8.23246981 0 0 Z " fill="#F7F7F7" transform="translate(891.875,169.1875)"/>
<path d="M0 0 C3.67963429 2.79756593 5.82997824 5.95419673 8 10 C8.34584641 10.62891144 8.69169281 11.25782288 9.04801941 11.90579224 C13.00856307 20.61836616 11.16401026 33.22401232 11.16796875 42.6328125 C11.1711878 44.43781561 11.17455234 46.24281846 11.17805481 48.04782104 C11.18401472 51.81492722 11.18589777 55.58201054 11.18530273 59.34912109 C11.18520086 64.1616924 11.1988933 68.97411702 11.21607494 73.78665352 C11.22721917 77.5082567 11.22922126 81.22982456 11.22869301 84.95144272 C11.22986791 86.72554915 11.23426203 88.49965665 11.24202538 90.27374649 C11.25188204 92.75698295 11.24892586 95.23990238 11.24291992 97.72314453 C11.24853943 98.44543243 11.25415894 99.16772034 11.25994873 99.91189575 C11.20668262 108.62988848 9.1531041 115.62661771 3 122 C-1.23219323 124.7914466 -5.00990915 125.42422029 -10 126 C-10.99 126.495 -10.99 126.495 -12 127 C-12 126.34 -12 125.68 -12 125 C-13.03125 124.9175 -14.0625 124.835 -15.125 124.75 C-19.45338936 123.91224722 -21.55498323 122.71203448 -25 120 C-25.77927982 119.40687389 -25.77927982 119.40687389 -26.57430267 118.80176544 C-29.85763779 115.98646963 -31.38355986 113.9333604 -31.73498535 109.5604248 C-31.7583249 107.8158144 -31.74882174 106.07056838 -31.71289062 104.32617188 C-31.71902374 102.89090904 -31.71902374 102.89090904 -31.72528076 101.426651 C-31.73128231 98.27323176 -31.69438965 95.12191959 -31.65625 91.96875 C-31.65013137 89.77209999 -31.64638175 87.57544221 -31.64489746 85.37878418 C-31.63570007 80.77874978 -31.60688533 76.17941734 -31.5625 71.57958984 C-31.50593575 65.68825992 -31.48407575 59.79748237 -31.4751358 53.90590668 C-31.46681473 49.37109879 -31.44716924 44.83640206 -31.42338562 40.301651 C-31.41200477 38.12957137 -31.40247931 35.95748119 -31.39485168 33.78538513 C-31.38107385 30.74800972 -31.35378513 27.71106494 -31.32226562 24.67382812 C-31.31891205 23.33174034 -31.31891205 23.33174034 -31.31549072 21.96253967 C-31.25129815 17.28268055 -30.94410456 13.34787718 -29 9 C-26.5625 6.8125 -26.5625 6.8125 -24 5 C-23.505 4.46375 -23.01 3.9275 -22.5 3.375 C-16.80027153 -1.84975109 -7.12073716 -1.30890673 0 0 Z " fill="#1C36DB" transform="translate(79,143)"/>
<path d="M0 0 C6.6 0 13.2 0 20 0 C20.33 22.11 20.66 44.22 21 67 C31.62423045 54.11847163 31.62423045 54.11847163 42.1875 41.1875 C42.71923828 40.53458984 43.25097656 39.88167969 43.79882812 39.20898438 C44.31251953 38.57669922 44.82621094 37.94441406 45.35546875 37.29296875 C45.79528076 36.7518042 46.23509277 36.21063965 46.68823242 35.65307617 C48.08024435 33.96287185 48.08024435 33.96287185 49.35986328 31.81860352 C51 30 51 30 53.26831055 29.54589844 C54.56442261 29.57731934 54.56442261 29.57731934 55.88671875 29.609375 C56.82451172 29.62226563 57.76230469 29.63515625 58.72851562 29.6484375 C59.70498047 29.68195313 60.68144531 29.71546875 61.6875 29.75 C62.67556641 29.76804688 63.66363281 29.78609375 64.68164062 29.8046875 C67.12206842 29.85184553 69.56054769 29.91763958 72 30 C71.74828603 36.58651552 69.46718605 39.39538747 64.875 43.9375 C63.68815742 45.16213598 62.50195473 46.38739244 61.31640625 47.61328125 C60.74422363 48.1954541 60.17204102 48.77762695 59.58251953 49.37744141 C57.60043253 51.40967686 55.69216985 53.49790015 53.8125 55.625 C53.30332031 56.19476563 52.79414062 56.76453125 52.26953125 57.3515625 C50.80696084 59.25065393 49.79970657 60.72502063 49 63 C49.79498089 65.39346181 49.79498089 65.39346181 51.375 67.796875 C51.9419458 68.74473877 52.5088916 69.69260254 53.09301758 70.66918945 C53.72232178 71.68585693 54.35162598 72.70252441 55 73.75 C56.29594435 75.90472457 57.59150561 78.05967957 58.88671875 80.21484375 C59.5626709 81.32714355 60.23862305 82.43944336 60.93505859 83.58544922 C64.28621426 89.12686127 67.54858794 94.71941929 70.8125 100.3125 C71.41642578 101.33762695 72.02035156 102.36275391 72.64257812 103.41894531 C73.20009766 104.36995117 73.75761719 105.32095703 74.33203125 106.30078125 C74.82421143 107.13778564 75.3163916 107.97479004 75.82348633 108.8371582 C77 111 77 111 78 114 C70.41 114 62.82 114 55 114 C35 78.78195489 35 78.78195489 35 76 C34.34 76 33.68 76 33 76 C32.61134766 76.88171875 32.61134766 76.88171875 32.21484375 77.78125 C30.91540207 80.15450683 29.52161971 81.6462093 27.5625 83.5 C23.24457531 87.60342735 20.65952711 90.25702407 20.48828125 96.421875 C20.45283203 97.44667969 20.41738281 98.47148437 20.38085938 99.52734375 C20.35830078 100.59082031 20.33574219 101.65429688 20.3125 102.75 C20.27833984 103.82894531 20.24417969 104.90789062 20.20898438 106.01953125 C20.12660142 108.67932392 20.06162163 111.33964537 20 114 C13.4 114 6.8 114 0 114 C0 76.38 0 38.76 0 0 Z " fill="#F6F6F6" transform="translate(752,135)"/>
<path d="M0 0 C24.75 0 49.5 0 75 0 C75 5.94 75 11.88 75 18 C56.85 18 38.7 18 20 18 C20 28.23 20 38.46 20 49 C35.84 49 51.68 49 68 49 C68 55.27 68 61.54 68 68 C52.16 68 36.32 68 20 68 C20 82.19 20 96.38 20 111 C13.4 111 6.8 111 0 111 C0 74.37 0 37.74 0 0 Z " fill="#FCFCFC" transform="translate(224,138)"/>
<path d="M0 0 C8.18651169 6.1701295 13.97346797 13.99747599 15.99998474 24.24160767 C16.41562993 27.23248868 16.56201231 30.03978905 16.55493164 33.05615234 C16.55481834 34.67715347 16.55481834 34.67715347 16.55470276 36.3309021 C16.54954147 37.48111847 16.54438019 38.63133484 16.5390625 39.81640625 C16.53764755 41.00650299 16.5362326 42.19659973 16.53477478 43.42276001 C16.52919045 47.21285547 16.51664076 51.00289123 16.50390625 54.79296875 C16.49888923 57.36718665 16.49432667 59.94140547 16.49023438 62.515625 C16.47922614 68.81642915 16.46197222 75.11718884 16.44140625 81.41796875 C9.51140625 81.41796875 2.58140625 81.41796875 -4.55859375 81.41796875 C-4.56793945 79.85433594 -4.57728516 78.29070312 -4.58691406 76.6796875 C-4.62690051 70.85729891 -4.69268469 65.03543386 -4.76611328 59.21337891 C-4.79427252 56.697497 -4.81551203 54.18152745 -4.82958984 51.66552734 C-4.85108831 48.04088639 -4.89777745 44.41729358 -4.94921875 40.79296875 C-4.95044739 39.67494873 -4.95167603 38.55692871 -4.95294189 37.4050293 C-5.09904972 29.54714462 -6.1675823 23.8089802 -11.93359375 18.04296875 C-17.09995459 14.84474537 -21.29190702 13.94709039 -27.25390625 14.8203125 C-33.67192124 16.4846452 -37.98008667 20.28748208 -41.6484375 25.671875 C-43.47015015 29.16674863 -43.69507745 32.56761809 -43.76391602 36.46191406 C-43.78386124 37.46264954 -43.80380646 38.46338501 -43.82435608 39.4944458 C-43.84942482 41.10401154 -43.84942482 41.10401154 -43.875 42.74609375 C-43.8957811 43.85023621 -43.91656219 44.95437866 -43.93797302 46.09197998 C-44.00333021 49.61724658 -44.06228939 53.14258734 -44.12109375 56.66796875 C-44.16429211 59.0586014 -44.20790682 61.44922657 -44.25195312 63.83984375 C-44.35899751 69.69914285 -44.46030413 75.55851651 -44.55859375 81.41796875 C-51.15859375 81.41796875 -57.75859375 81.41796875 -64.55859375 81.41796875 C-64.55859375 53.69796875 -64.55859375 25.97796875 -64.55859375 -2.58203125 C-57.95859375 -2.58203125 -51.35859375 -2.58203125 -44.55859375 -2.58203125 C-44.22859375 1.04796875 -43.89859375 4.67796875 -43.55859375 8.41796875 C-42.42421875 7.18046875 -41.28984375 5.94296875 -40.12109375 4.66796875 C-29.56080995 -5.92982938 -12.86962827 -7.95755641 0 0 Z " fill="#F8F9F9" transform="translate(403.55859375,167.58203125)"/>
<path d="M0 0 C8.29412035 6.68027237 13.52500177 14.38308566 15 25 C11.77206203 25.23329086 8.54628768 25.37467674 5.3125 25.5 C4.40048828 25.56703125 3.48847656 25.6340625 2.54882812 25.703125 C-0.17727258 25.78242975 -2.37365652 25.74994031 -5 25 C-6.78706769 23.10719186 -7.83042024 21.27238057 -8.99487305 18.95068359 C-10.25884001 16.49766051 -11.67125281 15.39836572 -14.0625 14.0625 C-14.71347656 13.68222656 -15.36445312 13.30195313 -16.03515625 12.91015625 C-21.51148145 10.37340919 -27.57207448 10.06408612 -33.375 11.6484375 C-40.40383702 14.42672781 -43.95457802 18.72732483 -47.875 25 C-50.32699025 31.47501618 -50.13148239 39.99114571 -48.2734375 46.57421875 C-45.13284772 53.27669693 -40.26048403 57.50826807 -33.453125 60.26953125 C-26.3177665 62.39423195 -19.91955056 61.24482108 -13.203125 58.27734375 C-8.94635445 55.80932253 -6.56670082 52.70010245 -5 48 C1.6 48 8.2 48 15 48 C12.11614369 58.9282976 7.56261563 68.39666875 -2.42578125 74.4765625 C-14.0042278 80.4854073 -26.56910932 81.92556469 -39.3671875 79.3125 C-51.06826722 75.33479585 -60.10777568 67.89788871 -65.8125 56.9375 C-71.06459096 46.1644397 -72.26061562 32.48575509 -68.4375 21 C-62.51933737 7.43407088 -53.4344608 -0.33783197 -40 -6 C-26.46105809 -10.58577065 -11.8603309 -7.68334845 0 0 Z " fill="#F9F9F9" transform="translate(731,171)"/>
<path d="M0 0 C3.78975472 2.98922226 4.65345877 7.86391465 5.73828125 12.37109375 C5.9290625 13.0465625 6.11984375 13.72203125 6.31640625 14.41796875 C7.44989235 19.66558959 7.22151707 24.84084699 5.61328125 29.93359375 C3.73828125 32.37109375 3.73828125 32.37109375 0.86328125 33.37109375 C-2.41298279 33.37109375 -4.29605664 32.65788951 -7.26171875 31.37109375 C-7.98875 32.71300781 -7.98875 32.71300781 -8.73046875 34.08203125 C-12.9676205 41.7783659 -17.45534833 48.73375797 -23.26171875 55.37109375 C-24.09574219 56.34949219 -24.92976562 57.32789063 -25.7890625 58.3359375 C-41.38944504 76.28787961 -64.41201786 89.58339688 -88.26171875 92.37109375 C-93.82834384 92.59620947 -99.37966719 92.56203505 -104.94921875 92.49609375 C-106.44074915 92.48603667 -107.93228617 92.47691567 -109.42382812 92.46875 C-113.03659849 92.44696919 -116.64911468 92.41259225 -120.26171875 92.37109375 C-120.26171875 91.71109375 -120.26171875 91.05109375 -120.26171875 90.37109375 C-122.02515625 90.27828125 -122.02515625 90.27828125 -123.82421875 90.18359375 C-129.11039703 89.62051912 -133.96233858 87.95126721 -138.94360352 86.18676758 C-142.36471058 84.97713148 -145.68044038 83.97252981 -149.26171875 83.37109375 C-149.26171875 82.71109375 -149.26171875 82.05109375 -149.26171875 81.37109375 C-150.58171875 81.37109375 -151.90171875 81.37109375 -153.26171875 81.37109375 C-154.20256817 76.5727617 -154.35011958 73.79358962 -152.26171875 69.37109375 C-152.26171875 68.38109375 -152.26171875 67.39109375 -152.26171875 66.37109375 C-149.26171875 64.37109375 -149.26171875 64.37109375 -147.26171875 64.37109375 C-147.26171875 65.03109375 -147.26171875 65.69109375 -147.26171875 66.37109375 C-145.37453125 66.74234375 -145.37453125 66.74234375 -143.44921875 67.12109375 C-137.85939066 68.34943177 -132.59386701 70.3179675 -127.26171875 72.37109375 C-126.93171875 71.71109375 -126.60171875 71.05109375 -126.26171875 70.37109375 C-126.26171875 71.36109375 -126.26171875 72.35109375 -126.26171875 73.37109375 C-106.63681569 75.36730693 -88.66244504 76.75846532 -70.07421875 68.87109375 C-69.07003906 68.44828125 -68.06585938 68.02546875 -67.03125 67.58984375 C-62.90699586 65.77493925 -59.02383404 63.71364794 -55.13671875 61.43359375 C-54.26789063 60.92957031 -53.3990625 60.42554688 -52.50390625 59.90625 C-50.01709789 58.40843779 -50.01709789 58.40843779 -48.26171875 55.37109375 C-46.87533203 54.45457031 -46.87533203 54.45457031 -45.4609375 53.51953125 C-42.14480449 51.2925799 -39.74668667 48.95445359 -37.07421875 45.99609375 C-36.23503906 45.08085938 -35.39585937 44.165625 -34.53125 43.22265625 C-32.27377711 40.38624452 -30.84756533 37.61426169 -29.26171875 34.37109375 C-28.28535558 33.34800287 -27.28764395 32.3444783 -26.26171875 31.37109375 C-25.06286769 29.44320403 -25.06286769 29.44320403 -24.07421875 27.37109375 C-23.55794922 26.35015625 -23.55794922 26.35015625 -23.03125 25.30859375 C-22.07715467 23.25385892 -22.07715467 23.25385892 -22.26171875 20.37109375 C-23.10734375 19.62859375 -23.95296875 18.88609375 -24.82421875 18.12109375 C-27.26171875 15.37109375 -27.26171875 15.37109375 -27.32421875 11.74609375 C-26.10848301 7.88434493 -25.57882991 7.45380453 -22.26171875 5.37109375 C-6.90098949 -2.30032983 -6.90098949 -2.30032983 0 0 Z " fill="#0D0D0D" transform="translate(177.26171875,10.62890625)"/>
<path d="M0 0 C27.72 0 55.44 0 84 0 C84 5.94 84 11.88 84 18 C73.77 18 63.54 18 53 18 C53 48.69 53 79.38 53 111 C46.07 111 39.14 111 32 111 C32 80.31 32 49.62 32 18 C21.44 18 10.88 18 0 18 C0 12.06 0 6.12 0 0 Z " fill="#FCFCFC" transform="translate(425,138)"/>
<path d="M0 0 C6.6 0 13.2 0 20 0 C20 4.29 20 8.58 20 13 C20.86789983 12.13210017 21.68710058 11.21602362 22.49609375 10.29296875 C28.23597811 4.06802374 33.7021756 0.37573223 42.3046875 -0.234375 C45.2041456 -0.24801951 48.10364099 -0.13471437 51 0 C51 6.27 51 12.54 51 19 C48.875625 19.0825 46.75125 19.165 44.5625 19.25 C37.0590341 19.79625839 31.17610381 20.99105955 25.625 26.25 C21.32508168 33.52678485 20.54200652 39.76586206 20.48828125 48.0625 C20.47033005 49.09439453 20.45237885 50.12628906 20.43388367 51.18945312 C20.38004544 54.45959484 20.34596978 57.72959281 20.3125 61 C20.27930358 63.22788447 20.24481179 65.45575004 20.20898438 67.68359375 C20.12433407 73.12229168 20.0573967 78.56094894 20 84 C13.4 84 6.8 84 0 84 C0 56.28 0 28.56 0 0 Z " fill="#FAFAFA" transform="translate(515,165)"/>
<path d="M0 0 C6.27 0 12.54 0 19 0 C19 4.95 19 9.9 19 15 C19.66 15 20.32 15 21 15 C21.13921875 14.11828125 21.13921875 14.11828125 21.28125 13.21875 C22.86331886 8.33497222 27.96152141 5.25304329 32.1796875 2.66015625 C37.90667773 -0.20333887 42.64984883 -0.357755 49 0 C49 6.27 49 12.54 49 19 C41.875 19.75 41.875 19.75 39.66748047 19.95605469 C33.70909132 20.67035032 29.93925007 23.00534279 25.8125 27.25 C21.19420038 34.25707528 20.54243467 40.66637054 20.48828125 48.84375 C20.47033005 49.85344849 20.45237885 50.86314697 20.43388367 51.90344238 C20.38005901 55.10225349 20.34597429 58.30091777 20.3125 61.5 C20.27930237 63.67970781 20.24481047 65.85939631 20.20898438 68.0390625 C20.12193178 73.35939289 20.06162416 78.67907235 20 84 C13.4 84 6.8 84 0 84 C0 56.28 0 28.56 0 0 Z " fill="#F1F2F2" transform="translate(917,165)"/>
<path d="M0 0 C5.57290491 5.418102 7.15187538 11.89275294 7.38768005 19.41296387 C7.40846847 21.97249627 7.41281819 24.53219506 7.40405273 27.09179688 C7.40976314 28.50855546 7.41672998 29.92530945 7.42485046 31.34205627 C7.44272133 35.17057692 7.44162525 38.99886762 7.43590808 42.82741737 C7.43280798 46.03066947 7.43891765 49.23387791 7.44494683 52.43712378 C7.45896994 59.99636848 7.45744872 67.55550012 7.44604492 75.11474609 C7.43456042 82.89926598 7.44864983 90.68344148 7.4754414 98.46791601 C7.4976271 105.16626067 7.50422949 111.86449745 7.49836498 118.56287622 C7.4950017 122.5570924 7.49736864 126.55108774 7.51461601 130.54527283 C7.53012954 134.30145022 7.52608143 138.05711869 7.50731087 141.81327629 C7.50189297 143.83939795 7.51610466 145.86554271 7.53100586 147.89161682 C7.45938748 156.77269903 6.32865515 162.73688176 0 169.3125 C-4.71341895 172.97624963 -10.07797965 174.62423729 -16 175 C-19.63576703 174.14510343 -22.70549763 172.72539403 -26 171 C-26.99 170.67 -27.98 170.34 -29 170 C-29 169.34 -29 168.68 -29 168 C-29.99 167.67 -30.98 167.34 -32 167 C-32 166.34 -32 165.68 -32 165 C-32.99 164.67 -33.98 164.34 -35 164 C-37.48619672 157.11000974 -37.27673109 150.23394143 -37.24291992 142.98144531 C-37.24481827 141.69257416 -37.24671661 140.403703 -37.24867249 139.07577515 C-37.25349489 135.55897854 -37.24589611 132.04231004 -37.23571944 128.52552891 C-37.22688643 124.82893093 -37.22869746 121.13233636 -37.2290802 117.43572998 C-37.2281453 111.22536092 -37.21948803 105.01504089 -37.20581055 98.8046875 C-37.19011467 91.65202194 -37.18481164 84.49941011 -37.1855461 77.34672856 C-37.18622503 69.69895987 -37.17926177 62.05121155 -37.1700995 54.40344906 C-37.16798102 52.21579598 -37.16726006 50.02814625 -37.16686058 47.84049225 C-37.16565656 43.73901405 -37.15589369 39.63759741 -37.14526367 35.53613281 C-37.14571686 34.33884552 -37.14617004 33.14155823 -37.14663696 31.9079895 C-37.06445716 10.08774673 -37.06445716 10.08774673 -31.47265625 3.328125 C-30 2 -30 2 -28 2 C-28 1.34 -28 0.68 -28 0 C-18.07865372 -4.39481689 -9.70384143 -5.4341512 0 0 Z M-28 8 C-31.77637616 14.58817942 -31.41737302 20.9947152 -31.37231445 28.44335938 C-31.37474538 29.8024778 -31.37846762 31.16159444 -31.38337708 32.52070618 C-31.39274859 36.19636062 -31.38339234 39.87174701 -31.37004495 43.54738045 C-31.35869019 47.40247743 -31.36284106 51.25756199 -31.36479187 55.1126709 C-31.36567358 61.58541213 -31.35462033 68.05804838 -31.33618164 74.53076172 C-31.3150159 82.00334155 -31.31150489 89.47576767 -31.3177436 96.94837141 C-31.3234477 104.15064482 -31.31777927 111.35286436 -31.30657005 118.55513 C-31.30193791 121.61396791 -31.3010442 124.67277271 -31.3031559 127.73161316 C-31.30504617 131.33663879 -31.2968784 134.94150904 -31.2810955 138.54649925 C-31.27486236 140.49288836 -31.27834939 142.43930107 -31.28216553 144.38569641 C-31.4736118 154.45807756 -31.4736118 154.45807756 -27.125 163.1796875 C-26.073125 164.01886719 -26.073125 164.01886719 -25 164.875 C-23.948125 165.73738281 -23.948125 165.73738281 -22.875 166.6171875 C-18.75906923 169.65268644 -14.97271739 169.55516781 -10 169 C-4.71088154 167.46235786 -1.58130591 165.2956562 1.13919067 160.36873055 C3.04549203 155.12306916 2.55272658 149.41180528 2.51757812 143.89819336 C2.52300419 142.46848337 2.53012957 141.03877897 2.53881836 139.60908508 C2.55699574 135.74131103 2.55000802 131.87396553 2.53730202 128.00618434 C2.52714719 123.95174841 2.53657439 119.8973482 2.54284668 115.84291077 C2.55011505 109.03640175 2.54055587 102.23006659 2.52148438 95.42358398 C2.49970834 87.56121237 2.50677539 79.69925557 2.52879 71.83689398 C2.54695674 65.07744329 2.54949639 58.31811729 2.53903532 51.55865008 C2.53280848 47.52537364 2.53194252 43.49229206 2.54518127 39.45902824 C2.55675816 35.66755616 2.54868118 31.87661776 2.52560425 28.08520317 C2.52032725 26.69608953 2.52181372 25.30693077 2.53065491 23.91783524 C2.79965288 14.0861272 2.79965288 14.0861272 -2 6 C-6.70482222 2.42433511 -10.50724054 1.22589309 -16.43359375 1.48828125 C-21.03674764 2.4061095 -24.76671448 4.62124969 -28 8 Z " fill="#060715" transform="translate(189,95)"/>
<path d="M0 0 C6.14126027 3.73654992 9.93609916 9.14784921 12 16 C12.87842069 23.52095426 12.90472663 30.40235845 9 37 C8.64808594 37.60328125 8.29617188 38.2065625 7.93359375 38.828125 C4.71295794 43.88760568 0.95437257 46.75957576 -4.85546875 48.58203125 C-11.7256848 49.92103511 -19.05346268 50.02880341 -25.1875 46.38671875 C-31.51058368 41.54901464 -35.57431114 35.87947683 -37 28 C-38.08354769 18.6408568 -35.99672284 11.6450737 -30.3125 4.1875 C-22.12603254 -4.6571759 -10.39578257 -5.00749234 0 0 Z " fill="#050606" transform="translate(621,184)"/>
<path d="M0 0 C1.07765625 0.00902344 2.1553125 0.01804687 3.265625 0.02734375 C4.08546875 0.03894531 4.9053125 0.05054687 5.75 0.0625 C5.75 0.7225 5.75 1.3825 5.75 2.0625 C6.471875 2.10375 7.19375 2.145 7.9375 2.1875 C12.59995224 3.6380407 14.78928372 7.23713907 17 11.4375 C18.98672826 18.3910489 18.90282826 25.55408202 18.91113281 32.72607422 C18.91858017 34.28381058 18.91858017 34.28381058 18.92617798 35.87301636 C18.94071076 39.28774695 18.94758576 42.70243114 18.953125 46.1171875 C18.95888255 48.503184 18.9646402 50.8891805 18.97039795 53.275177 C18.98088181 58.26987929 18.98674197 63.26456561 18.99023438 68.25927734 C18.99572197 74.6433879 19.01976702 81.02728551 19.04820633 87.41132927 C19.06687201 92.33741872 19.07204035 97.26345719 19.07357025 102.18957901 C19.07658701 104.54258517 19.08458233 106.89559064 19.09775543 109.24856186 C19.11490247 112.54591667 19.1129147 115.84275482 19.10644531 119.14013672 C19.12026749 120.58217468 19.12026749 120.58217468 19.1343689 122.05334473 C19.09031366 129.25920408 18.35636987 136.74905553 13.77734375 142.5703125 C13.08769531 143.10398437 12.39804688 143.63765625 11.6875 144.1875 C10.99527344 144.74695313 10.30304688 145.30640625 9.58984375 145.8828125 C7.75 147.0625 7.75 147.0625 5.75 147.0625 C5.42 148.0525 5.09 149.0425 4.75 150.0625 C4.42 149.7325 4.09 149.4025 3.75 149.0625 C2.08050645 149.10017954 0.41240712 149.21678796 -1.25 149.375 C-2.1575 149.45363281 -3.065 149.53226563 -4 149.61328125 C-4.7425 149.76152344 -5.485 149.90976562 -6.25 150.0625 C-6.58 150.7225 -6.91 151.3825 -7.25 152.0625 C-8.735 151.0725 -8.735 151.0725 -10.25 150.0625 C-10.25 149.4025 -10.25 148.7425 -10.25 148.0625 C-11.549375 147.7221875 -11.549375 147.7221875 -12.875 147.375 C-17.66689095 145.51148685 -21.2912458 143.12382154 -23.5 138.375 C-23.87125 137.2303125 -23.87125 137.2303125 -24.25 136.0625 C-24.91 135.4025 -25.57 134.7425 -26.25 134.0625 C-25.95041941 132.05716647 -25.61055587 130.05777205 -25.25 128.0625 C-25.33398843 125.73928872 -25.48545064 123.41816275 -25.6796875 121.1015625 C-26.55070274 108.92778906 -26.40118863 96.72760081 -26.38037109 84.52978516 C-26.3746171 81.09506296 -26.37800379 77.66041798 -26.38394356 74.22569847 C-26.38843471 70.90827202 -26.38528911 67.59086614 -26.3828125 64.2734375 C-26.38483673 63.05046967 -26.38686096 61.82750183 -26.38894653 60.56747437 C-26.37348785 54.94806944 -26.14275841 49.62177096 -25.25 44.0625 C-25.17346801 41.79402593 -25.14188412 39.52364684 -25.15234375 37.25390625 C-25.15556641 36.01318359 -25.15878906 34.77246094 -25.16210938 33.49414062 C-25.17048828 32.21732422 -25.17886719 30.94050781 -25.1875 29.625 C-25.19201172 28.32111328 -25.19652344 27.01722656 -25.20117188 25.67382812 C-25.21290749 22.47000448 -25.22932637 19.26627637 -25.25 16.0625 C-24.59 16.0625 -23.93 16.0625 -23.25 16.0625 C-23.1571875 15.010625 -23.1571875 15.010625 -23.0625 13.9375 C-21.58288425 8.70193659 -18.24543887 5.45535726 -13.6875 2.75 C-8.84833331 0.37440908 -5.39142189 -0.05860241 0 0 Z M-16.5625 12.6875 C-18.90093326 15.9786283 -19.376292 17.63976038 -19.39044189 21.62174988 C-19.39615204 22.5820108 -19.40186218 23.54227173 -19.40774536 24.53163147 C-19.40886322 25.58877853 -19.40998108 26.6459256 -19.41113281 27.73510742 C-19.41609772 28.84581604 -19.42106262 29.95652466 -19.42617798 31.10089111 C-19.44082967 34.78992321 -19.44760738 38.47891228 -19.453125 42.16796875 C-19.45887493 44.72666933 -19.46463268 47.28536989 -19.47039795 49.84407043 C-19.47957136 54.5294036 -19.48586753 59.21472381 -19.4888947 63.90006369 C-19.49336964 70.7881119 -19.51088907 77.6759611 -19.5398953 84.56394881 C-19.56416154 90.53440035 -19.57184132 96.50480262 -19.57357025 102.47530556 C-19.57659696 105.01221104 -19.58462607 107.54911568 -19.59775543 110.085989 C-19.61482503 113.63845205 -19.61293285 117.1904324 -19.60644531 120.74291992 C-19.6156601 121.78994583 -19.62487488 122.83697174 -19.6343689 123.91572571 C-19.6010441 129.74611933 -19.09774516 133.93142453 -16.25 139.0625 C-12.29470127 142.8149629 -8.46493096 145.33932183 -2.9375 145.4375 C1.90536059 145.30231342 4.99750887 144.06803596 8.75 141.0625 C14.15636713 135.0986391 14.46815398 130.51471422 14.38110352 122.63867188 C14.38825882 121.50772598 14.39541412 120.37678009 14.40278625 119.21156311 C14.41965328 115.48437742 14.40028037 111.75839782 14.37890625 108.03125 C14.37973512 105.43485413 14.38219519 102.83845832 14.38621521 100.24206543 C14.38907189 94.80491947 14.3749163 89.36821739 14.34692383 83.93115234 C14.31487505 77.65811785 14.31488997 71.38570519 14.3321386 65.11262655 C14.34803964 59.06144722 14.34114837 53.01055573 14.32420158 46.95936584 C14.31902382 44.39177458 14.31949662 41.82416542 14.32574654 39.25657654 C14.33120569 35.66610391 14.31079865 32.0766811 14.28344727 28.48632812 C14.28997314 27.42845596 14.29649902 26.3705838 14.30322266 25.28065491 C14.2219839 18.99858732 13.49924026 15.16734758 9.75 10.0625 C4.76040333 6.09118836 0.67273626 5.42404541 -5.6640625 5.67578125 C-10.68115162 6.42607101 -13.31563517 9.00186965 -16.5625 12.6875 Z " fill="#0B0305" transform="translate(124.25,118.9375)"/>
<path d="M0 0 C4.54625686 7.35258826 4.47812036 15.64617485 4 24 C2.02 24.495 2.02 24.495 0 25 C-0.598125 24.236875 -1.19625 23.47375 -1.8125 22.6875 C-3.47400977 20.64621657 -5.12604939 18.83099472 -7 17 C-7.309375 18.175625 -7.61875 19.35125 -7.9375 20.5625 C-12.2722903 33.40557639 -20.99153016 44.12374178 -30 54 C-30.61617188 54.68707031 -31.23234375 55.37414062 -31.8671875 56.08203125 C-47.37243637 72.51462754 -72.23569215 83.315276 -94.6328125 84.21875 C-113.62980906 84.70420224 -130.62364096 80.61460829 -148 73 C-148.125 67.25 -148.125 67.25 -147 65 C-141.53366834 66.77286432 -141.53366834 66.77286432 -138.92578125 67.8828125 C-115.61058965 77.41913886 -89.3815817 77.38562715 -66 68.25 C-54.78528009 63.40203332 -45.776937 56.38884115 -37 48 C-36.32453125 47.39929687 -35.6490625 46.79859375 -34.953125 46.1796875 C-26.43823745 38.3119314 -18.56683304 26.67196774 -14 16 C-14 15.01 -14 14.02 -14 13 C-16.31 12.01 -18.62 11.02 -21 10 C-20.828125 7.671875 -20.828125 7.671875 -20 5 C-17.671875 3.453125 -17.671875 3.453125 -14.75 2.25 C-13.79609375 1.84265625 -12.8421875 1.4353125 -11.859375 1.015625 C-3.87351443 -1.82088285 -3.87351443 -1.82088285 0 0 Z " fill="#F5F5F5" transform="translate(176,15)"/>
<path d="M0 0 C6.6 0 13.2 0 20 0 C20 27.72 20 55.44 20 84 C13.4 84 6.8 84 0 84 C0 56.28 0 28.56 0 0 Z " fill="#F9F9F9" transform="translate(307,165)"/>
<path d="M0 0 C3.67963429 2.79756593 5.82997824 5.95419673 8 10 C8.34584641 10.62891144 8.69169281 11.25782288 9.04801941 11.90579224 C13.00856307 20.61836616 11.16401026 33.22401232 11.16796875 42.6328125 C11.1711878 44.43781561 11.17455234 46.24281846 11.17805481 48.04782104 C11.18401472 51.81492722 11.18589777 55.58201054 11.18530273 59.34912109 C11.18520086 64.1616924 11.1988933 68.97411702 11.21607494 73.78665352 C11.22721917 77.5082567 11.22922126 81.22982456 11.22869301 84.95144272 C11.22986791 86.72554915 11.23426203 88.49965665 11.24202538 90.27374649 C11.25188204 92.75698295 11.24892586 95.23990238 11.24291992 97.72314453 C11.24853943 98.44543243 11.25415894 99.16772034 11.25994873 99.91189575 C11.20668262 108.62988848 9.1531041 115.62661771 3 122 C-1.23219323 124.7914466 -5.00990915 125.42422029 -10 126 C-10.99 126.495 -10.99 126.495 -12 127 C-12 126.34 -12 125.68 -12 125 C-13.03125 124.9175 -14.0625 124.835 -15.125 124.75 C-19.45338936 123.91224722 -21.55498323 122.71203448 -25 120 C-25.77927982 119.40687389 -25.77927982 119.40687389 -26.57430267 118.80176544 C-29.85763779 115.98646963 -31.38355986 113.9333604 -31.73498535 109.5604248 C-31.7583249 107.8158144 -31.74882174 106.07056838 -31.71289062 104.32617188 C-31.71902374 102.89090904 -31.71902374 102.89090904 -31.72528076 101.426651 C-31.73128231 98.27323176 -31.69438965 95.12191959 -31.65625 91.96875 C-31.65013137 89.77209999 -31.64638175 87.57544221 -31.64489746 85.37878418 C-31.63570007 80.77874978 -31.60688533 76.17941734 -31.5625 71.57958984 C-31.50593575 65.68825992 -31.48407575 59.79748237 -31.4751358 53.90590668 C-31.46681473 49.37109879 -31.44716924 44.83640206 -31.42338562 40.301651 C-31.41200477 38.12957137 -31.40247931 35.95748119 -31.39485168 33.78538513 C-31.38107385 30.74800972 -31.35378513 27.71106494 -31.32226562 24.67382812 C-31.31891205 23.33174034 -31.31891205 23.33174034 -31.31549072 21.96253967 C-31.25129815 17.28268055 -30.94410456 13.34787718 -29 9 C-26.5625 6.8125 -26.5625 6.8125 -24 5 C-23.505 4.46375 -23.01 3.9275 -22.5 3.375 C-16.80027153 -1.84975109 -7.12073716 -1.30890673 0 0 Z M-22 9 C-25.80581374 14.52401426 -26.58281175 18.48622579 -26.51757812 25.11303711 C-26.5245874 25.99853745 -26.53159668 26.88403778 -26.53881836 27.79637146 C-26.55634175 30.70701995 -26.5447947 33.61668633 -26.53125 36.52734375 C-26.53394678 38.56083868 -26.53783075 40.59433235 -26.54284668 42.62782288 C-26.54873428 46.88376171 -26.54020333 51.13936405 -26.52148438 55.39526367 C-26.49871001 60.83701632 -26.51181326 66.27797911 -26.53577423 71.71970272 C-26.55026448 75.91746413 -26.54561115 80.11503992 -26.53526306 84.31280708 C-26.53260394 86.31856951 -26.53583671 88.32434905 -26.54518127 90.33009148 C-26.5553984 93.13970095 -26.53977325 95.94805203 -26.51757812 98.75756836 C-26.52567505 99.57807678 -26.53377197 100.39858521 -26.54211426 101.24395752 C-26.45948334 106.92140261 -25.16368641 111.2472236 -22 116 C-17.60291062 120.18259722 -14.14516469 121.3224847 -8.0546875 121.2109375 C-3.28664383 120.72144252 -0.20887323 118.46819043 2.8125 114.9375 C6.27700664 110.28516251 6.17042435 106.91693121 6.20874023 101.27099609 C6.21852402 100.36671875 6.2283078 99.46244141 6.23838806 98.53076172 C6.26838024 95.52833535 6.2897413 92.52595377 6.30859375 89.5234375 C6.31516558 88.49819599 6.3217374 87.47295448 6.32850838 86.41664505 C6.36112309 80.98692454 6.38556549 75.55722379 6.4050293 70.12744141 C6.42282563 65.63626454 6.45761642 61.14571752 6.50756836 56.65478516 C6.56781897 51.23185187 6.59851249 45.80950161 6.60820198 40.38624954 C6.61675191 38.32180631 6.63555855 36.25737845 6.6649456 34.19312668 C6.70395232 31.29652211 6.70488249 28.40217696 6.69702148 25.50537109 C6.71702209 24.65830597 6.73702271 23.81124084 6.75762939 22.93850708 C6.67987963 16.52934125 4.54889696 12.51373879 0 8 C-7.31577931 3.74354658 -15.29995301 3.48800258 -22 9 Z " fill="#020308" transform="translate(79,143)"/>
<path d="M0 0 C4.62255982 2.01520686 8.29603196 5.62120077 10.75 10 C10.75 11.98 10.75 13.96 10.75 16 C-2.78 16 -16.31 16 -30.25 16 C-29.15572204 10.52861019 -27.87498862 6.93885298 -23.27734375 3.54296875 C-15.764772 -1.18817898 -8.80497601 -2.69328678 0 0 Z " fill="#050506" transform="translate(877.25,181)"/>
<path d="M0 0 C3.64973956 2.12901474 5.41013272 4.14192207 7 8 C7.41487723 12.00320131 6.9878072 15.56079129 4.68359375 18.91796875 C1.5383466 21.99024033 -1.14719881 23.39340214 -5.5625 23.625 C-9.9332558 23.31173764 -12.67575073 21.91885301 -16 19 C-18.59036348 15.58542996 -18.43108741 12.16717829 -18 8 C-13.80356645 0.05675078 -8.54011865 -1.13499146 0 0 Z " fill="#F9F9F9" transform="translate(323,131)"/>
<path d="M0 0 C0.66 0.33 1.32 0.66 2 1 C2 38.95 2 76.9 2 116 C1.01 116.495 1.01 116.495 0 117 C-1.19979305 114.60041389 -1.12577743 113.11783606 -1.12698364 110.43833923 C-1.12980347 109.4778215 -1.13262329 108.51730377 -1.13552856 107.52767944 C-1.13350433 106.47045685 -1.1314801 105.41323425 -1.12939453 104.32397461 C-1.13114685 103.21338181 -1.13289917 102.102789 -1.13470459 100.95854187 C-1.13912005 97.27312679 -1.13618637 93.58775936 -1.1328125 89.90234375 C-1.13348558 87.35168956 -1.13445564 84.80103544 -1.13571167 82.25038147 C-1.13718819 76.89958019 -1.13513014 71.54879614 -1.13037109 66.19799805 C-1.12492594 60.00408701 -1.12669348 53.81020886 -1.1321975 47.61629862 C-1.13727408 41.6661126 -1.13674729 35.71593685 -1.13381577 29.76574898 C-1.13314631 27.22947752 -1.13397558 24.69320523 -1.13629532 22.15693474 C-1.13882015 18.62014377 -1.13498377 15.08341701 -1.12939453 11.54663086 C-1.13141876 10.48738403 -1.13344299 9.42813721 -1.13552856 8.33679199 C-1.13270874 7.37909409 -1.12988892 6.42139618 -1.12698364 5.43467712 C-1.12660662 4.59752135 -1.12622959 3.76036558 -1.12584114 2.89784145 C-1 1 -1 1 0 0 Z " fill="#010007" transform="translate(156,111)"/>
<path d="M0 0 C1.41152344 0.04253906 1.41152344 0.04253906 2.8515625 0.0859375 C8.69207983 0.41653282 11.51983533 1.04691353 16 5 C18.76612002 4.86506732 20.47895318 4.29242976 22.88183594 2.94384766 C25.28986006 1.87083921 26.71713179 1.83693799 29.328125 2.0234375 C30.12734375 2.075 30.9265625 2.1265625 31.75 2.1796875 C32.575 2.24414062 33.4 2.30859375 34.25 2.375 C35.51070312 2.46007812 35.51070312 2.46007812 36.796875 2.546875 C38.86529042 2.68790332 40.9327646 2.84261788 43 3 C43 3.33 43 3.66 43 4 C41.35 4.33 39.7 4.66 38 5 C39.98 5.33 41.96 5.66 44 6 C44 6.33 44 6.66 44 7 C37.73 7 31.46 7 25 7 C25 11.62 25 16.24 25 21 C24.34 20.29875 23.68 19.5975 23 18.875 C16.01890078 11.95289598 8.72494396 6.91411804 -1.375 6.70703125 C-3.2502264 6.72670146 -5.1253484 6.76207834 -7 6.8125 C-7.96550781 6.82603516 -8.93101562 6.83957031 -9.92578125 6.85351562 C-12.28445425 6.88854542 -14.64191771 6.93765916 -17 7 C-16.34 6.67 -15.68 6.34 -15 6 C-15 5.34 -15 4.68 -15 4 C-15.66 3.67 -16.32 3.34 -17 3 C-16.01 3 -15.02 3 -14 3 C-14 2.34 -14 1.68 -14 1 C-9.30719122 -0.21104743 -4.80569694 -0.16265436 0 0 Z " fill="#0A0A0A" transform="translate(610,158)"/>
<path d="M0 0 C0.33 0 0.66 0 1 0 C1 95.37 1 190.74 1 289 C0.67 289 0.34 289 0 289 C0 193.63 0 98.26 0 0 Z " fill="#4C4C52" transform="translate(0,0)"/>
<path d="M0 0 C3.06273831 -0.05410136 6.12451452 -0.09372225 9.1875 -0.125 C10.48397461 -0.15013672 10.48397461 -0.15013672 11.80664062 -0.17578125 C20.08141836 -0.23918951 20.08141836 -0.23918951 24 2 C25.3125 4.125 25.3125 4.125 26 6 C27.3921875 5.0409375 27.3921875 5.0409375 28.8125 4.0625 C33.69292839 0.90457575 37.55397291 0.87353856 43.1875 0.9375 C43.93708984 0.94201172 44.68667969 0.94652344 45.45898438 0.95117188 C47.30602383 0.96293646 49.15302213 0.98087135 51 1 C51 1.33 51 1.66 51 2 C47.7 2.33 44.4 2.66 41 3 C40.67 3.99 40.34 4.98 40 6 C38.21484375 6.921875 38.21484375 6.921875 35.9375 7.75 C30.79745168 9.88003602 26.74623123 12.88105699 23 17 C22.67 17.99 22.34 18.98 22 20 C21.34 20 20.68 20 20 20 C20 15.05 20 10.1 20 5 C15.1983779 5.07889429 15.1983779 5.07889429 10.3972168 5.18017578 C6.68552129 5.21099473 5.16466336 5.10977558 2 3 C1.34 2.67 0.68 2.34 0 2 C0 1.34 0 0.68 0 0 Z " fill="#0C0C0C" transform="translate(916,160)"/>
<path d="M0 0 C0.79921875 0.00644531 1.5984375 0.01289063 2.421875 0.01953125 C3.246875 0.03628906 4.071875 0.05304688 4.921875 0.0703125 C5.76234375 0.07933594 6.6028125 0.08835938 7.46875 0.09765625 C9.53658104 0.12115433 11.60426495 0.15702342 13.671875 0.1953125 C13.671875 0.5253125 13.671875 0.8553125 13.671875 1.1953125 C9.711875 1.8553125 5.751875 2.5153125 1.671875 3.1953125 C2.661875 3.8553125 3.651875 4.5153125 4.671875 5.1953125 C3.62 5.50662109 3.62 5.50662109 2.546875 5.82421875 C-4.46343744 8.10066532 -9.17512931 10.95724376 -14.328125 16.1953125 C-15.318125 17.1853125 -16.308125 18.1753125 -17.328125 19.1953125 C-17.328125 14.9053125 -17.328125 10.6153125 -17.328125 6.1953125 C-23.928125 6.1953125 -30.528125 6.1953125 -37.328125 6.1953125 C-37.328125 5.8653125 -37.328125 5.5353125 -37.328125 5.1953125 C-33.038125 5.1953125 -28.748125 5.1953125 -24.328125 5.1953125 C-24.328125 4.5353125 -24.328125 3.8753125 -24.328125 3.1953125 C-28.948125 3.1953125 -33.568125 3.1953125 -38.328125 3.1953125 C-38.328125 2.8653125 -38.328125 2.5353125 -38.328125 2.1953125 C-34.53647426 2.1663788 -30.74485173 2.14853649 -26.953125 2.1328125 C-25.87289063 2.12443359 -24.79265625 2.11605469 -23.6796875 2.10742188 C-22.1328125 2.10258789 -22.1328125 2.10258789 -20.5546875 2.09765625 C-19.60158691 2.09241943 -18.64848633 2.08718262 -17.66650391 2.08178711 C-15.328125 2.1953125 -15.328125 2.1953125 -13.328125 3.1953125 C-13.328125 3.8553125 -13.328125 4.5153125 -13.328125 5.1953125 C-11.678125 4.8653125 -10.028125 4.5353125 -8.328125 4.1953125 C-8.328125 3.5353125 -8.328125 2.8753125 -8.328125 2.1953125 C-5.40988256 0.52856929 -3.35218121 -0.0478883 0 0 Z " fill="#0B0C0C" transform="translate(376.328125,158.8046875)"/>
<path d="M0 0 C0.66 0 1.32 0 2 0 C2 30.69 2 61.38 2 93 C-4.93 93 -11.86 93 -19 93 C-19 92.67 -19 92.34 -19 92 C-13.06 91.67 -7.12 91.34 -1 91 C-0.67 60.97 -0.34 30.94 0 0 Z " fill="#B7B7B7" transform="translate(476,156)"/>
<path d="M0 0 C1.98 0 3.96 0 6 0 C5.07944816 3.53276711 4.4112991 4.75379983 1.2265625 6.66015625 C-13.70868075 12.47550585 -28.90012274 15.95959533 -45 15 C-45 14.67 -45 14.34 -45 14 C-41.7 13.67 -38.4 13.34 -35 13 C-36.65 13 -38.3 13 -40 13 C-38.68 12.67 -37.36 12.34 -36 12 C-36 11.34 -36 10.68 -36 10 C-34.28103516 9.81824219 -34.28103516 9.81824219 -32.52734375 9.6328125 C-30.99736094 9.46385734 -29.46741493 9.29456873 -27.9375 9.125 C-26.80924805 9.00705078 -26.80924805 9.00705078 -25.65820312 8.88671875 C-18.52113465 8.08341234 -12.17702195 6.19917791 -5.5625 3.375 C-4.51191406 2.92898437 -3.46132812 2.48296875 -2.37890625 2.0234375 C-1.59386719 1.68570313 -0.80882812 1.34796875 0 1 C0 0.67 0 0.34 0 0 Z " fill="#0D0D0D" transform="translate(113,76)"/>
<path d="M0 0 C0 0.66 0 1.32 0 2 C1.32 2.33 2.64 2.66 4 3 C1.36 3.33 -1.28 3.66 -4 4 C-4 4.33 -4 4.66 -4 5 C-5.46759766 5.25523437 -5.46759766 5.25523437 -6.96484375 5.515625 C-17.42862812 7.41679522 -25.83908515 10.5424337 -35 16 C-35 12.67941669 -34.56938028 10.91456338 -33 8 C-30.375 6.6875 -30.375 6.6875 -28 6 C-28 5.34 -28 4.68 -28 4 C-24.92382812 3.70703125 -24.92382812 3.70703125 -21.84765625 3.4140625 C-20.93306641 3.20910156 -20.93306641 3.20910156 -20 3 C-19.67 2.34 -19.34 1.68 -19 1 C-12.65057468 -0.00784529 -6.41772028 -0.12058347 0 0 Z " fill="#0B0B0B" transform="translate(874,158)"/>
<path d="M0 0 C0.33 0 0.66 0 1 0 C1 12.87 1 25.74 1 39 C-5.6 39 -12.2 39 -19 39 C-19 38.67 -19 38.34 -19 38 C-13.06 37.67 -7.12 37.34 -1 37 C-1.01160156 34.41285156 -1.02320313 31.82570312 -1.03515625 29.16015625 C-1.04294662 26.66479617 -1.04902349 24.16943743 -1.05493164 21.67407227 C-1.05997204 19.93480832 -1.0668043 18.19554864 -1.07543945 16.45629883 C-1.08751792 13.96174063 -1.09323108 11.46723827 -1.09765625 8.97265625 C-1.10281754 8.19036148 -1.10797882 7.40806671 -1.11329651 6.60206604 C-1.11349226 4.73432886 -1.06199694 2.86670796 -1 1 C-0.67 0.67 -0.34 0.34 0 0 Z " fill="#CBCCCC" transform="translate(534,210)"/>
<path d="M0 0 C0 0.66 0 1.32 0 2 C1.32 2.33 2.64 2.66 4 3 C-4.415 3.495 -4.415 3.495 -13 4 C-9.04 4.33 -5.08 4.66 -1 5 C-1 5.33 -1 5.66 -1 6 C-8.92 6.495 -8.92 6.495 -17 7 C-16.34 6.67 -15.68 6.34 -15 6 C-15 5.34 -15 4.68 -15 4 C-15.66 3.67 -16.32 3.34 -17 3 C-16.01 3 -15.02 3 -14 3 C-14 2.34 -14 1.68 -14 1 C-9.32798795 -0.20568053 -4.78503708 -0.09382426 0 0 Z " fill="#1D1D1E" transform="translate(610,158)"/>
<path d="M0 0 C5.28 0 10.56 0 16 0 C16.33 0.99 16.66 1.98 17 3 C8.25607982 4.79362465 -0.08530089 5.23737365 -9 5 C-9 4.67 -9 4.34 -9 4 C-5.7 3.67 -2.4 3.34 1 3 C-0.65 3 -2.3 3 -4 3 C-2.68 2.67 -1.36 2.34 0 2 C0 1.34 0 0.68 0 0 Z " fill="#282828" transform="translate(77,86)"/>
<path d="M0 0 C3.3 0.33 6.6 0.66 10 1 C10 1.33 10 1.66 10 2 C8.02 2.33 6.04 2.66 4 3 C4 3.99 4 4.98 4 6 C0.37 7.32 -3.26 8.64 -7 10 C-6 6 -6 6 -5 4 C-4.34 4 -3.68 4 -3 4 C-3 3.34 -3 2.68 -3 2 C-2.01 2 -1.02 2 0 2 C0 1.34 0 0.68 0 0 Z " fill="#111212" transform="translate(854,159)"/>
<path d="M0 0 C1.16337891 0.00966797 2.32675781 0.01933594 3.52539062 0.02929688 C4.74033203 0.05443359 5.95527344 0.07957031 7.20703125 0.10546875 C8.43357422 0.11900391 9.66011719 0.13253906 10.92382812 0.14648438 C13.95616789 0.18188134 16.98763121 0.23126115 20.01953125 0.29296875 C20.01953125 0.62296875 20.01953125 0.95296875 20.01953125 1.29296875 C19.34897705 1.29707764 18.67842285 1.30118652 17.98754883 1.30541992 C14.93482734 1.33841518 11.88408595 1.40906495 8.83203125 1.48046875 C7.24938477 1.48916992 7.24938477 1.48916992 5.63476562 1.49804688 C-0.68895652 1.60816077 -0.68895652 1.60816077 -6.04296875 4.69921875 C-7.00203125 5.983125 -7.00203125 5.983125 -7.98046875 7.29296875 C-9.6291142 8.64852168 -11.2905087 9.98928528 -12.98046875 11.29296875 C-12.47483218 7.5512581 -11.86752908 5.73586595 -8.98046875 3.29296875 C-8.57530029 2.77565186 -8.17013184 2.25833496 -7.75268555 1.7253418 C-5.18322188 -0.3513965 -3.26660551 -0.04780398 0 0 Z " fill="#151414" transform="translate(804.98046875,160.70703125)"/>
<path d="M0 0 C1.98 0 3.96 0 6 0 C5.5625 2.3125 5.5625 2.3125 4 5 C1.12301254 6.51595109 -1.77028552 7.57973412 -5 8 C-5.99 7.34 -6.98 6.68 -8 6 C-7.34 6 -6.68 6 -6 6 C-5.67 5.01 -5.34 4.02 -5 3 C-2.4375 1.8125 -2.4375 1.8125 0 1 C0 0.67 0 0.34 0 0 Z " fill="#0F0F10" transform="translate(113,76)"/>
<path d="M0 0 C-0.639375 0.268125 -1.27875 0.53625 -1.9375 0.8125 C-4.33131686 1.88667752 -4.33131686 1.88667752 -5 5 C-9.33333333 8 -9.33333333 8 -12 8 C-12 8.99 -12 9.98 -12 11 C-12.66 11 -13.32 11 -14 11 C-12.9262171 5.86970392 -11.05645892 3.67622205 -6.8203125 0.90234375 C-4.45157321 -0.27185963 -2.59884461 -0.39376434 0 0 Z " fill="#233DDF" transform="translate(173,98)"/>
<path d="M0 0 C2.31 0 4.62 0 7 0 C7 0.66 7 1.32 7 2 C10.3 2 13.6 2 17 2 C12.72386699 5.20709976 12.02526282 5.50252628 7 5 C3.6875 4.1875 3.6875 4.1875 1 3 C0.67 2.01 0.34 1.02 0 0 Z " fill="#0E0F0F" transform="translate(55,85)"/>
<path d="M0 0 C-3 2 -3 2 -5.875 3.25 C-9.66768868 5.37390566 -11.39834174 7.55662877 -14 11 C-14.33 10.01 -14.66 9.02 -15 8 C-11.09816858 1.99718243 -7.1718266 -0.50036 0 0 Z " fill="#10090B" transform="translate(118,121)"/>
<path d="M0 0 C0.99 0.33 1.98 0.66 3 1 C3 2.65 3 4.3 3 6 C1.68 6.33 0.36 6.66 -1 7 C-1.625 4.625 -1.625 4.625 -2 2 C-1.34 1.34 -0.68 0.68 0 0 Z " fill="#EEEEEF" transform="translate(157,19)"/>
<path d="M0 0 C0.99386719 0.00902344 1.98773437 0.01804688 3.01171875 0.02734375 C4.15060547 0.04474609 4.15060547 0.04474609 5.3125 0.0625 C2.97078261 2.40421739 2.08189546 2.454423 -1.125 2.8125 C-1.90746094 2.91046875 -2.68992187 3.0084375 -3.49609375 3.109375 C-5.6875 3.0625 -5.6875 3.0625 -8.6875 1.0625 C-5.53819107 0.01273036 -3.29935544 -0.03881595 0 0 Z " fill="#0B0C0C" transform="translate(962.6875,187.9375)"/>
<path d="M0 0 C1.60332791 -0.08121924 3.20784026 -0.13929134 4.8125 -0.1875 C6.15248047 -0.23970703 6.15248047 -0.23970703 7.51953125 -0.29296875 C10 0 10 0 11.84375 1.375 C13 3 13 3 12.6875 5.1875 C12.3471875 6.0846875 12.3471875 6.0846875 12 7 C11.67 6.01 11.34 5.02 11 4 C8.43957934 2.96961044 8.43957934 2.96961044 5.4375 2.3125 C3.91962891 1.93544922 3.91962891 1.93544922 2.37109375 1.55078125 C1.19740234 1.27814453 1.19740234 1.27814453 0 1 C0 0.67 0 0.34 0 0 Z " fill="#0E0D0D" transform="translate(558,160)"/>
<path d="M0 0 C0.33 0.99 0.66 1.98 1 3 C-2.3125 4.125 -2.3125 4.125 -6 5 C-6.99 4.34 -7.98 3.68 -9 3 C-6.03 2.01 -3.06 1.02 0 0 Z " fill="#151616" transform="translate(114,79)"/>
<path d="M0 0 C0.53625 0.474375 1.0725 0.94875 1.625 1.4375 C4.42842836 3.28186076 6.69620258 3.62456847 10 4 C9.67 4.66 9.34 5.32 9 6 C5.28111761 5.49287967 2.26545761 4.88391785 -1 3 C-0.67 2.01 -0.34 1.02 0 0 Z " fill="#141414" transform="translate(170,38)"/>
<path d="M0 0 C4.29 0 8.58 0 13 0 C7.52941176 2.73529412 7.52941176 2.73529412 4 3 C2.68 2.01 1.36 1.02 0 0 Z " fill="#070713" transform="translate(169,267)"/>
<path d="M0 0 C0.33 0.99 0.66 1.98 1 3 C-0.65 4.32 -2.3 5.64 -4 7 C-4.33 5.35 -4.66 3.7 -5 2 C-4.360625 1.855625 -3.72125 1.71125 -3.0625 1.5625 C-1.02454854 1.18992819 -1.02454854 1.18992819 0 0 Z " fill="#080808" transform="translate(146,53)"/>
<path d="M0 0 C-0.99 0.33 -1.98 0.66 -3 1 C-3 1.66 -3 2.32 -3 3 C-4.98 3 -6.96 3 -9 3 C-9.33 2.01 -9.66 1.02 -10 0 C-6.30581799 -1.231394 -3.7943739 -0.64432764 0 0 Z " fill="#030302" transform="translate(177,11)"/>
<path d="M0 0 C2.97 0 5.94 0 9 0 C8.01 0.33 7.02 0.66 6 1 C5.67 1.66 5.34 2.32 5 3 C2.9375 3.625 2.9375 3.625 1 4 C0.67 2.68 0.34 1.36 0 0 Z " fill="#C7C7C8" transform="translate(381,163)"/>
<path d="M0 0 C0.99 0.33 1.98 0.66 3 1 C0.03 3.475 0.03 3.475 -3 6 C-3.66 5.67 -4.32 5.34 -5 5 C-3.35 3.35 -1.7 1.7 0 0 Z " fill="#0D0D0D" transform="translate(578,167)"/>
<path d="M0 0 C0.66 0.33 1.32 0.66 2 1 C1.67 1.66 1.34 2.32 1 3 C0.34 2.67 -0.32 2.34 -1 2 C-0.67 1.34 -0.34 0.68 0 0 Z " fill="#000000" transform="translate(153,31)"/>
<path d="M0 0 C0.66 0.33 1.32 0.66 2 1 C1.01 1 0.02 1 -1 1 C-0.67 0.67 -0.34 0.34 0 0 Z " fill="#000000" transform="translate(134,265)"/>
<path d="M0 0 C0.99 0 1.98 0 3 0 C2.67 0.66 2.34 1.32 2 2 C1.34 1.34 0.68 0.68 0 0 Z " fill="#000000" transform="translate(176,45)"/>
<path d="M0 0 C0.33 0.66 0.66 1.32 1 2 C0.34 1.67 -0.32 1.34 -1 1 C-0.67 0.67 -0.34 0.34 0 0 Z " fill="#000000" transform="translate(73,269)"/>
<path d="M0 0 C3 1 3 1 3 1 Z " fill="#000000" transform="translate(63,269)"/>
<path d="M0 0 C0.66 0 1.32 0 2 0 C1.67 0.66 1.34 1.32 1 2 C0.67 1.34 0.34 0.68 0 0 Z " fill="#000000" transform="translate(968,159)"/>
<path d="M0 0 C3 1 3 1 3 1 Z " fill="#000000" transform="translate(106,119)"/>
<path d="M0 0 C0.33 0.66 0.66 1.32 1 2 C0.34 1.67 -0.32 1.34 -1 1 C-0.67 0.67 -0.34 0.34 0 0 Z " fill="#000000" transform="translate(154,67)"/>
<path d="M0 0 C0.99 0.495 0.99 0.495 2 1 C1.01 1.495 1.01 1.495 0 2 C0 1.34 0 0.68 0 0 Z " fill="#000000" transform="translate(172,45)"/>
<path d="M0 0 C3 1 3 1 3 1 Z " fill="#000000" transform="translate(169,44)"/>
<path d="" fill="#000000" transform="translate(0,0)"/>
<path d="" fill="#000000" transform="translate(0,0)"/>
<path d="" fill="#000000" transform="translate(0,0)"/>
<path d="M0 0 C2 1 2 1 2 1 Z " fill="#000000" transform="translate(181,269)"/>
<path d="M0 0 C2 1 2 1 2 1 Z " fill="#000000" transform="translate(56,266)"/>
<path d="M0 0 C2 1 2 1 2 1 Z " fill="#000000" transform="translate(97,247)"/>
<path d="M0 0 C2 1 2 1 2 1 Z " fill="#000000" transform="translate(903,246)"/>
<path d="M0 0 C2 1 2 1 2 1 Z " fill="#000000" transform="translate(949,196)"/>
<path d="M0 0 C2 1 2 1 2 1 Z " fill="#000000" transform="translate(831,171)"/>
<path d="" fill="#000000" transform="translate(0,0)"/>
<path d="M0 0 C2 1 2 1 2 1 Z " fill="#000000" transform="translate(944,161)"/>
<path d="M0 0 C2 1 2 1 2 1 Z " fill="#000000" transform="translate(886,159)"/>
<path d="M0 0 C2 1 2 1 2 1 Z " fill="#000000" transform="translate(847,159)"/>
<path d="M0 0 C2 1 2 1 2 1 Z " fill="#000000" transform="translate(368,159)"/>
<path d="" fill="#000000" transform="translate(0,0)"/>
<path d="" fill="#000000" transform="translate(0,0)"/>
<path d="" fill="#000000" transform="translate(0,0)"/>
<path d="" fill="#000000" transform="translate(0,0)"/>
<path d="M0 0 C2 1 2 1 2 1 Z " fill="#000000" transform="translate(158,70)"/>
<path d="M0 0 C2 1 2 1 2 1 Z " fill="#000000" transform="translate(151,70)"/>
<path d="M0 0 C2 1 2 1 2 1 Z " fill="#000000" transform="translate(156,64)"/>
<path d="" fill="#000000" transform="translate(0,0)"/>
<path d="" fill="#000000" transform="translate(0,0)"/>
<path d="" fill="#000000" transform="translate(0,0)"/>
<path d="" fill="#000000" transform="translate(0,0)"/>
<path d="" fill="#000000" transform="translate(0,0)"/>
<path d="" fill="#000000" transform="translate(0,0)"/>
<path d="" fill="#000000" transform="translate(0,0)"/>
<path d="" fill="#000000" transform="translate(0,0)"/>
<path d="" fill="#000000" transform="translate(0,0)"/>
<path d="" fill="#000000" transform="translate(0,0)"/>
<path d="" fill="#000000" transform="translate(0,0)"/>
<path d="" fill="#000000" transform="translate(0,0)"/>
<path d="" fill="#000000" transform="translate(0,0)"/>
<path d="" fill="#000000" transform="translate(0,0)"/>
<path d="" fill="#000000" transform="translate(0,0)"/>
<path d="" fill="#000000" transform="translate(0,0)"/>
<path d="" fill="#000000" transform="translate(0,0)"/>
<path d="" fill="#000000" transform="translate(0,0)"/>
<path d="" fill="#000000" transform="translate(0,0)"/>
<path d="" fill="#000000" transform="translate(0,0)"/>
<path d="" fill="#000000" transform="translate(0,0)"/>
<path d="" fill="#000000" transform="translate(0,0)"/>
<path d="" fill="#000000" transform="translate(0,0)"/>
<path d="" fill="#000000" transform="translate(0,0)"/>
<path d="" fill="#000000" transform="translate(0,0)"/>
<path d="" fill="#000000" transform="translate(0,0)"/>
<path d="" fill="#000000" transform="translate(0,0)"/>
<path d="" fill="#000000" transform="translate(0,0)"/>
<path d="" fill="#000000" transform="translate(0,0)"/>
<path d="" fill="#000000" transform="translate(0,0)"/>
<path d="" fill="#000000" transform="translate(0,0)"/>
<path d="" fill="#000000" transform="translate(0,0)"/>
<path d="" fill="#000000" transform="translate(0,0)"/>
<path d="" fill="#000000" transform="translate(0,0)"/>
<path d="" fill="#000000" transform="translate(0,0)"/>
<path d="" fill="#000000" transform="translate(0,0)"/>
<path d="" fill="#000000" transform="translate(0,0)"/>
<path d="" fill="#000000" transform="translate(0,0)"/>
<path d="" fill="#000000" transform="translate(0,0)"/>
<path d="" fill="#000000" transform="translate(0,0)"/>
<path d="" fill="#000000" transform="translate(0,0)"/>
<path d="" fill="#000000" transform="translate(0,0)"/>
<path d="" fill="#000000" transform="translate(0,0)"/>
<path d="" fill="#000000" transform="translate(0,0)"/>
<path d="" fill="#000000" transform="translate(0,0)"/>
<path d="" fill="#000000" transform="translate(0,0)"/>
<path d="" fill="#000000" transform="translate(0,0)"/>
<path d="" fill="#000000" transform="translate(0,0)"/>
<path d="" fill="#000000" transform="translate(0,0)"/>
<path d="" fill="#000000" transform="translate(0,0)"/>
<path d="" fill="#000000" transform="translate(0,0)"/>
<path d="" fill="#000000" transform="translate(0,0)"/>
<path d="" fill="#000000" transform="translate(0,0)"/>
<path d="" fill="#000000" transform="translate(0,0)"/>
<path d="" fill="#000000" transform="translate(0,0)"/>
<path d="" fill="#000000" transform="translate(0,0)"/>
<path d="" fill="#000000" transform="translate(0,0)"/>
<path d="" fill="#000000" transform="translate(0,0)"/>
<path d="" fill="#000000" transform="translate(0,0)"/>
<path d="" fill="#000000" transform="translate(0,0)"/>
<path d="" fill="#000000" transform="translate(0,0)"/>
<path d="" fill="#000000" transform="translate(0,0)"/>
<path d="" fill="#000000" transform="translate(0,0)"/>
<path d="" fill="#000000" transform="translate(0,0)"/>
<path d="" fill="#000000" transform="translate(0,0)"/>
<path d="" fill="#000000" transform="translate(0,0)"/>
<path d="" fill="#000000" transform="translate(0,0)"/>
<path d="" fill="#000000" transform="translate(0,0)"/>
<path d="" fill="#000000" transform="translate(0,0)"/>
<path d="" fill="#000000" transform="translate(0,0)"/>
<path d="" fill="#000000" transform="translate(0,0)"/>
<path d="" fill="#000000" transform="translate(0,0)"/>
<path d="" fill="#000000" transform="translate(0,0)"/>
<path d="" fill="#000000" transform="translate(0,0)"/>
<path d="" fill="#000000" transform="translate(0,0)"/>
<path d="" fill="#000000" transform="translate(0,0)"/>
<path d="" fill="#000000" transform="translate(0,0)"/>
<path d="" fill="#000000" transform="translate(0,0)"/>
<path d="" fill="#000000" transform="translate(0,0)"/>
<path d="" fill="#000000" transform="translate(0,0)"/>
<path d="" fill="#000000" transform="translate(0,0)"/>
<path d="" fill="#000000" transform="translate(0,0)"/>
<path d="" fill="#000000" transform="translate(0,0)"/>
<path d="" fill="#000000" transform="translate(0,0)"/>
<path d="" fill="#000000" transform="translate(0,0)"/>
<path d="" fill="#000000" transform="translate(0,0)"/>
<path d="" fill="#000000" transform="translate(0,0)"/>
<path d="" fill="#000000" transform="translate(0,0)"/>
<path d="" fill="#000000" transform="translate(0,0)"/>
<path d="" fill="#000000" transform="translate(0,0)"/>
<path d="" fill="#000000" transform="translate(0,0)"/>
<path d="" fill="#000000" transform="translate(0,0)"/>
<path d="" fill="#000000" transform="translate(0,0)"/>
<path d="" fill="#000000" transform="translate(0,0)"/>
<path d="" fill="#000000" transform="translate(0,0)"/>
<path d="" fill="#000000" transform="translate(0,0)"/>
<path d="" fill="#000000" transform="translate(0,0)"/>
<path d="" fill="#000000" transform="translate(0,0)"/>
<path d="" fill="#000000" transform="translate(0,0)"/>
<path d="" fill="#000000" transform="translate(0,0)"/>
<path d="" fill="#000000" transform="translate(0,0)"/>
<path d="" fill="#000000" transform="translate(0,0)"/>
<path d="" fill="#000000" transform="translate(0,0)"/>
<path d="" fill="#000000" transform="translate(0,0)"/>
<path d="" fill="#000000" transform="translate(0,0)"/>
<path d="" fill="#000000" transform="translate(0,0)"/>
<path d="" fill="#000000" transform="translate(0,0)"/>
</svg>
